HIERARCHY
ROOT Hips
{
	OFFSET 0.000000 0.000000 0.000000
	CHANNELS 6 Xposition Yposition Zposition Xrotation Yrotation Zrotation
	JOINT LeftUpLeg_virtual
	{
		OFFSET 0.000000 0.000000 0.000000
		CHANNELS 3 Xrotation Yrotation Zrotation
		JOINT LeftUpLeg
		{
			OFFSET 13.026900 -6.336304 -1.092800
			CHANNELS 3 Xrotation Yrotation Zrotation
			JOINT LeftLeg
			{
				OFFSET 0.524474 -46.096886 9.782700
				CHANNELS 3 Xrotation Yrotation Zrotation
				JOINT LeftFoot
				{
					OFFSET -0.524474 -53.427422 -12.948200
					CHANNELS 3 Xrotation Yrotation Zrotation
					JOINT LeftToeBase
					{
						OFFSET 0.192200 -14.009700 16.364100
						CHANNELS 3 Xrotation Yrotation Zrotation
						JOINT LeftToe_End
						{
							OFFSET -1.784700 -0.561700 9.474800
							CHANNELS 3 Xrotation Yrotation Zrotation
							End Site
							{
								OFFSET 0 0 0
							}
						}
					}
				}
			}
		}
	}
	JOINT RightUpLeg_virtual
	{
		OFFSET 0.000000 0.000000 0.000000
		CHANNELS 3 Xrotation Yrotation Zrotation
		JOINT RightUpLeg
		{
			OFFSET -12.883000 -6.336304 -1.092800
			CHANNELS 3 Xrotation Yrotation Zrotation
			JOINT RightLeg
			{
				OFFSET -0.524587 -46.096825 9.782800
				CHANNELS 3 Xrotation Yrotation Zrotation
				JOINT RightFoot
				{
					OFFSET 0.524587 -53.427383 -12.948300
					CHANNELS 3 Xrotation Yrotation Zrotation
					JOINT RightToeBase
					{
						OFFSET -0.192200 -14.009700 16.364100
						CHANNELS 3 Xrotation Yrotation Zrotation
						JOINT RightToe_End
						{
							OFFSET 1.784700 -0.561700 9.474800
							CHANNELS 3 Xrotation Yrotation Zrotation
							End Site
							{
								OFFSET 0 0 0
							}
						}
					}
				}
			}
		}
	}
	JOINT Spine_virtual
	{
		OFFSET 0.000000 0.000000 0.000000
		CHANNELS 3 Xrotation Yrotation Zrotation
		JOINT Spine
		{
			OFFSET 0.072000 7.257294 -0.789700
			CHANNELS 3 Xrotation Yrotation Zrotation
			JOINT Spine1
			{
				OFFSET 0.000000 12.508769 -0.658067
				CHANNELS 3 Xrotation Yrotation Zrotation
				JOINT Spine1_split
				{
					OFFSET 0.000000 12.508769 -0.658067
					CHANNELS 3 Xrotation Yrotation Zrotation
					JOINT Spine2
					{
						OFFSET 0.000000 12.508769 -0.658067
						CHANNELS 3 Xrotation Yrotation Zrotation
						JOINT Neck_virtual
						{
							OFFSET 0.000000 0.000000 0.000000
							CHANNELS 3 Xrotation Yrotation Zrotation
							JOINT Neck
							{
								OFFSET 0.000000 14.033295 7.520400
								CHANNELS 3 Xrotation Yrotation Zrotation
								JOINT Head
								{
									OFFSET 0.000000 8.198502 5.703100
									CHANNELS 3 Xrotation Yrotation Zrotation
									JOINT HeadTop_End
									{
										OFFSET 0.000000 17.760803 13.332701
										CHANNELS 3 Xrotation Yrotation Zrotation
										End Site
										{
											OFFSET 0 0 0
										}
									}
								}
							}
						}
						JOINT LeftShoulder_virtual
						{
							OFFSET 0.000000 0.000000 0.000000
							CHANNELS 3 Xrotation Yrotation Zrotation
							JOINT LeftShoulder
							{
								OFFSET 6.292450 5.785301 -0.669000
								CHANNELS 3 Xrotation Yrotation Zrotation
								JOINT LeftShoulder_split
								{
									OFFSET 6.292450 5.785301 -0.669000
									CHANNELS 3 Xrotation Yrotation Zrotation
									JOINT LeftArm
									{
										OFFSET 13.907140 -6.093903 1.965100
										CHANNELS 3 Xrotation Yrotation Zrotation
										JOINT LeftForeArm
										{
											OFFSET 34.140198 0.000000 0.000000
											CHANNELS 3 Xrotation Yrotation Zrotation
											JOINT LeftHand
											{
												OFFSET 40.960209 0.000000 0.000000
												CHANNELS 3 Xrotation Yrotation Zrotation
												End Site
												{
													OFFSET 0 0 0
												}
											}
										}
									}
								}
							}
						}
						JOINT RightShoulder_virtual
						{
							OFFSET 0.000000 0.000000 0.000000
							CHANNELS 3 Xrotation Yrotation Zrotation
							JOINT RightShoulder
							{
								OFFSET -6.292450 5.785301 -0.669000
								CHANNELS 3 Xrotation Yrotation Zrotation
								JOINT RightShoulder_split
								{
									OFFSET -6.292450 5.785301 -0.669000
									CHANNELS 3 Xrotation Yrotation Zrotation
									JOINT RightArm
									{
										OFFSET -13.907140 -6.093903 1.965100
										CHANNELS 3 Xrotation Yrotation Zrotation
										JOINT RightForeArm
										{
											OFFSET -34.140198 0.000000 0.000000
											CHANNELS 3 Xrotation Yrotation Zrotation
											JOINT RightHand
											{
												OFFSET -40.960209 0.000000 0.000000
												CHANNELS 3 Xrotation Yrotation Zrotation
												End Site
												{
													OFFSET 0 0 0
												}
											}
										}
									}
								}
							}
						}
					}
				}
			}
		}
	}
}
MOTION
Frames: 9
Frame Time: 0.03333333
-1.507914 53.171505 -22.345598 0.000000 0.000000 0.000000 70.087604 1.743414 -1.713196 1.754057 14.511942 10.524350 11.415982 9.161363 1.565285 -28.500317 2.049191 -6.714763 -28.060493 1.100818 -5.940176 0.000000 0.000000 0.000000 70.486254 -2.523787 -1.540188 -2.910692 -5.192031 -9.803937 9.691990 1.295525 0.887353 -18.672919 6.115143 10.301366 -53.435667 -1.339662 4.508527 0.000000 0.000000 0.000000 74.182227 0.816633 -2.430329 -1.205736 1.520168 -1.105376 1.901773 0.232136 0.377709 0.496331 -1.006079 1.229272 0.000000 0.000000 0.000000 0.786368 -0.241766 0.148097 -10.138793 -0.562233 3.324145 8.864330 7.287395 -5.761367 0.000000 0.000000 0.000000 1.079668 -0.362872 0.766435 1.540891 -1.532502 2.379989 1.493992 0.891507 -2.049505 -39.679690 -56.342548 -47.972708 -0.290690 -19.642716 0.323285 0.000000 0.000000 0.000000 0.897915 -0.049481 1.047818 1.835376 2.483811 13.957211 2.792974 5.930269 -1.368568 -58.123954 57.121760 53.785954 -0.694934 20.811856 0.995138 0.000000 0.000000 0.000000 
-1.717087 53.230759 -22.351839 0.000000 0.000000 0.000000 69.958062 1.773763 -1.643252 1.837753 14.495526 10.506318 11.515699 9.229566 1.537022 -28.415515 1.969745 -6.863901 -28.182453 1.116222 -5.861804 0.000000 0.000000 0.000000 70.491309 -2.699000 -1.396558 -3.147303 -5.001280 -9.841620 9.864795 1.380230 0.894555 -18.882036 6.047752 10.542371 -53.063842 -1.294983 4.492609 0.000000 0.000000 0.000000 74.334547 0.880980 -2.473010 -1.089488 1.559111 -1.133020 2.017077 0.216472 0.382280 0.538147 -1.254380 1.155132 0.000000 0.000000 0.000000 0.770453 -0.244740 0.197149 -10.418045 -0.620764 3.268461 8.903117 7.292866 -5.989645 0.000000 0.000000 0.000000 1.114947 -0.354172 0.766926 1.530969 -1.476062 2.443671 1.860941 1.152063 -1.550636 -40.176768 -56.320107 -48.347398 -0.168908 -19.277664 0.183345 0.000000 0.000000 0.000000 1.005731 -0.014915 1.094374 1.745999 2.685957 13.896424 2.907578 5.807516 -1.334940 -57.541229 56.357383 52.845819 -0.687435 20.952621 1.285003 0.000000 0.000000 0.000000 
-1.824232 53.341206 -22.406649 0.000000 0.000000 0.000000 69.771202 1.722420 -1.562921 1.946181 14.262137 10.473339 11.600922 9.400698 1.681131 -28.218754 1.913554 -7.092804 -28.709560 1.166810 -5.720734 0.000000 0.000000 0.000000 70.583899 -2.864028 -1.293830 -3.532710 -4.950225 -9.764215 9.676560 1.284767 0.871209 -18.878344 5.845996 10.649934 -52.780570 -1.254396 4.490201 0.000000 0.000000 0.000000 74.454833 0.894495 -2.434392 -0.911605 1.558343 -1.214054 2.197740 0.224722 0.400696 0.603263 -1.508847 1.119556 0.000000 0.000000 0.000000 0.782282 -0.238222 0.266870 -10.483160 -0.631438 3.206300 8.850036 7.152035 -6.071535 0.000000 0.000000 0.000000 1.235796 -0.347048 0.772935 1.538856 -1.448796 2.810084 2.188691 1.470195 -1.084906 -40.478932 -56.667771 -48.764364 0.009540 -19.434496 0.079620 0.000000 0.000000 0.000000 1.194838 0.033245 1.156209 1.538631 3.268428 13.822097 3.095744 5.724468 -1.284862 -54.953875 54.966507 49.938389 -0.722961 22.832849 1.550108 0.000000 0.000000 0.000000 
-1.882649 53.447811 -22.514933 0.000000 0.000000 0.000000 69.576897 1.703331 -1.524820 2.044130 13.933668 10.366148 11.376525 9.753362 1.960768 -27.957014 1.979351 -7.182271 -29.023735 1.258009 -5.650074 0.000000 0.000000 0.000000 70.757905 -2.980311 -1.202058 -3.970045 -5.055325 -9.581008 9.251479 1.056024 0.817501 -18.649618 5.532817 10.701765 -52.598358 -1.214287 4.491375 0.000000 0.000000 0.000000 74.465407 0.823642 -2.242896 -0.727193 1.507852 -1.338883 2.412372 0.238613 0.420071 0.630980 -1.687990 1.137369 0.000000 0.000000 0.000000 0.829925 -0.230813 0.354063 -10.348603 -0.585970 3.128529 8.614223 6.893078 -6.016297 0.000000 0.000000 0.000000 1.416623 -0.342502 0.790038 1.562485 -1.373859 3.506769 2.458759 1.689173 -0.757001 -40.678247 -57.200816 -49.237594 0.243646 -20.181916 0.015127 0.000000 0.000000 0.000000 1.425379 0.078856 1.227796 1.218318 4.272526 13.688566 3.252225 5.747187 -1.260177 -51.155897 53.066321 45.937356 -0.799549 25.981840 1.789060 0.000000 0.000000 0.000000 
-1.942910 53.584709 -22.660227 0.000000 0.000000 0.000000 69.436953 1.729695 -1.535494 2.190302 13.662951 10.201954 10.511367 10.349606 2.294772 -27.613137 2.111901 -6.997672 -28.871780 1.328169 -5.655894 0.000000 0.000000 0.000000 70.937081 -3.073622 -1.089337 -4.447598 -5.297531 -9.353253 8.848380 0.794295 0.743441 -18.271074 5.186361 10.839717 -52.312900 -1.171636 4.496115 0.000000 0.000000 0.000000 74.377085 0.738133 -1.978583 -0.569428 1.410262 -1.485024 2.629551 0.241945 0.423806 0.637888 -1.970633 1.150577 0.000000 0.000000 0.000000 0.911774 -0.236946 0.451829 -10.029388 -0.484757 3.016861 8.197874 6.609584 -5.865862 0.000000 0.000000 0.000000 1.633060 -0.348220 0.808942 1.591758 -1.195182 4.482613 2.581379 1.706008 -0.623955 -40.714532 -57.625732 -49.575016 0.520009 -21.434269 -0.001135 0.000000 0.000000 0.000000 1.669004 0.104632 1.305982 0.785635 5.733781 13.418813 3.451439 5.773537 -1.295577 -47.009573 50.847442 41.668990 -0.937565 29.838276 2.000241 0.000000 0.000000 0.000000 
-2.034416 53.830887 -22.769258 0.000000 0.000000 0.000000 69.394818 1.729169 -1.542316 2.272358 13.431323 10.113422 9.103581 10.797858 2.602527 -26.747770 2.210886 -7.060889 -28.701466 1.334975 -5.534084 0.000000 0.000000 0.000000 71.043550 -3.208719 -0.954445 -4.934593 -5.690249 -9.105717 8.611904 0.550333 0.676762 -17.838422 4.833520 11.143260 -51.762469 -1.126248 4.509789 0.000000 0.000000 0.000000 74.278177 0.659912 -1.720683 -0.468157 1.293781 -1.605840 2.831418 0.220555 0.399652 0.566768 -2.180545 1.121207 0.000000 0.000000 0.000000 1.021865 -0.260623 0.548548 -9.615895 -0.356988 2.867078 7.657343 6.317546 -5.651395 0.000000 0.000000 0.000000 1.870901 -0.364949 0.814192 1.618246 -0.943499 5.661117 2.570677 1.543823 -0.579591 -40.469752 -57.693515 -49.585589 0.831442 -23.102365 0.005306 0.000000 0.000000 0.000000 1.932956 0.110168 1.375233 0.272239 7.685238 13.005833 3.557444 5.689834 -1.363208 -43.103876 48.480191 37.714197 -1.118958 33.775825 2.195928 0.000000 0.000000 0.000000 
-2.189602 54.190361 -22.893965 0.000000 0.000000 0.000000 69.488084 1.613753 -1.532164 2.234387 13.336090 10.109964 7.440779 11.101733 2.876214 -25.533283 2.210936 -7.178158 -28.762439 1.211958 -5.164054 0.000000 0.000000 0.000000 71.082257 -3.491531 -0.812297 -5.395912 -6.201861 -8.759248 8.415327 0.328483 0.586277 -17.501912 4.448534 11.616217 -51.012408 -1.093615 4.541211 0.000000 0.000000 0.000000 74.259579 0.560094 -1.516910 -0.425606 1.190749 -1.656166 3.031906 0.178184 0.343232 0.430115 -2.333878 1.048804 0.000000 0.000000 0.000000 1.169426 -0.301320 0.636352 -9.215911 -0.238060 2.695897 7.054265 6.044419 -5.404685 0.000000 0.000000 0.000000 2.146816 -0.390551 0.786838 1.640589 -0.720459 7.016788 2.567679 1.189016 -0.630434 -39.832465 -57.288266 -49.055194 1.111378 -25.063529 0.006159 0.000000 0.000000 0.000000 2.223307 0.108025 1.433561 -0.296375 10.074390 12.543926 3.560461 5.487907 -1.443532 -39.724626 46.045024 34.218435 -1.318150 37.287901 2.391426 0.000000 0.000000 0.000000 
-2.396844 54.727657 -23.068624 0.000000 0.000000 0.000000 69.666372 1.336666 -1.535739 2.071041 13.319249 10.091025 6.031471 11.352999 3.130382 -24.295541 2.245582 -7.229119 -28.764078 0.975608 -4.585572 0.000000 0.000000 0.000000 71.116285 -3.921948 -0.710764 -5.786538 -6.754321 -8.251801 8.142750 0.105467 0.422126 -17.433896 4.030325 12.106281 -50.130525 -1.084470 4.608325 0.000000 0.000000 0.000000 74.328974 0.374640 -1.396331 -0.360743 1.144278 -1.615668 3.249989 0.136641 0.270303 0.263358 -2.289355 1.000992 0.000000 0.000000 0.000000 1.343376 -0.342638 0.694683 -8.918221 -0.162637 2.546142 6.450158 5.791854 -5.134777 0.000000 0.000000 0.000000 2.483596 -0.412862 0.729583 1.676268 -0.660302 8.490694 2.594133 0.652183 -0.838417 -38.741717 -56.407384 -47.827440 1.303404 -27.190502 -0.027786 0.000000 0.000000 0.000000 2.574957 0.114558 1.461363 -0.893357 12.803757 12.116333 3.523497 5.153061 -1.561904 -36.861172 43.603286 31.068017 -1.479927 40.223602 2.605528 0.000000 0.000000 0.000000 
-2.703863 55.419991 -23.259886 0.000000 0.000000 0.000000 69.911166 0.901829 -1.555818 1.622429 13.263434 9.973660 5.303281 11.536793 3.443321 -23.649907 2.540437 -7.201925 -28.298560 0.668033 -3.915372 0.000000 0.000000 0.000000 71.146652 -4.487050 -0.631499 -6.181404 -7.267314 -7.582985 7.835151 -0.171785 0.195752 -17.660661 3.577173 12.319943 -49.063393 -1.098401 4.733473 0.000000 0.000000 0.000000 74.492946 0.069144 -1.344418 -0.238129 1.200738 -1.482009 3.541241 0.122203 0.200722 0.162263 -2.056318 0.978733 0.000000 0.000000 0.000000 1.565638 -0.363800 0.712100 -8.790199 -0.152233 2.462837 5.857161 5.558965 -4.860150 0.000000 0.000000 0.000000 2.906151 -0.406700 0.655343 1.742519 -0.900421 10.052928 2.759357 -0.057983 -1.147818 -37.286809 -55.129909 -45.916708 1.361087 -29.402489 -0.127910 0.000000 0.000000 0.000000 3.037579 0.150137 1.447461 -1.477573 15.761010 11.845092 3.381607 4.650668 -1.685639 -34.551229 41.160349 28.109481 -1.577265 42.561607 2.831938 0.000000 0.000000 0.000000 
